# xmcd CD database file
#
# Track frame offsets:
#	150
#	16065
#	28756
#	51131
#	64314
#	76498
#	95776
#	111575
#	128869
#	140474
#	163766
#
# Disc length: 2385 seconds
#
# Revision: 0
# Processed by: cddbd v1.5.2PL0 Copyright (c) Steve Scherf et al.
# Submitted via: CDex 1.51
#
DISCID=9b094f0b
DTITLE=PLINIO DOURADO - Brazilian Spirit of Jazz
DYEAR=2004
DGENRE=Jazz
TTITLE0=Jurubeba
TTITLE1=Romance entre um Malandro e um Aviao
TTITLE2=Santarem
TTITLE3=Brincando
TTITLE4=Pixaim
TTITLE5=Aguas Cristalinas
TTITLE6=Crookes
TTITLE7=Mensagem do Mar
TTITLE8=Ilhas das Oncas
TTITLE9=Atual
TTITLE10=Branca
EXTD=YEAR: 2004
EXTT0=
EXTT1=
EXTT2=
EXTT3=
EXTT4=
EXTT5=
EXTT6=
EXTT7=
EXTT8=
EXTT9=
EXTT10=
PLAYORDER=
